<svg width="281" height="420" viewBox="0 0 281 420" fill="none" xmlns="http://www.w3.org/2000/svg">
<path d="M134.646 309.931C137.41 305.714 143.59 305.714 146.354 309.931L180.594 362.162C183.646 366.818 180.306 373 174.74 373H106.26C100.694 373 97.3544 366.818 100.406 362.162L134.646 309.931Z" fill="#A07855"/>
<path d="M140.5 26L262.177 321.5H18.8234L140.5 26Z" fill="#2FB123"/>
<path d="M140.5 0L146.45 17.9656H165.703L150.127 29.0689L156.076 47.0344L140.5 35.9311L124.924 47.0344L130.873 29.0689L115.297 17.9656H134.55L140.5 0Z" fill="#FEE715"/>
<path d="M147 99C147 105.075 142.075 110 136 110C129.925 110 125 105.075 125 99C125 92.9249 129.925 88 136 88C142.075 88 147 92.9249 147 99Z" fill="#FD0303"/>
<circle cx="156" cy="219" r="11" fill="#03C1FD"/>
<circle cx="92" cy="208" r="11" fill="#0367FD"/>
<circle cx="125" cy="157" r="11" fill="#FD0303"/>
<circle cx="167" cy="153" r="11" fill="#F803FD"/>
<circle cx="140" cy="279" r="11" fill="#FD0303"/>
<circle cx="195" cy="241" r="11" fill="#FD9903"/>
<circle cx="70" cy="263" r="11" fill="#FD0303"/>
</svg>
